# xmcd CD database file
#
# Track frame offsets:
#	150
#	19210
#	55195
#	75580
#	96935
#	118130
#	140285
#	169278
#	194710
#	220197
#	248525
#
# Disc length: 3637 seconds
#
# Revision: 0
# Processed by: cddbd v1.4PL0 Copyright (c) Steve Scherf et al.
# Submitted via: CDex 1.51
#
DISCID=990e330b
DTITLE=Hector Martignon - Foreign Affair
DYEAR=1998
DGENRE=Jazz
TTITLE0=Benitez Sez
TTITLE1=The Foreign Affair
TTITLE2=My one and only love
TTITLE3=La propuesta
TTITLE4=Some day my spring will come
TTITLE5=Blues for Leticia
TTITLE6=Sorrindo
TTITLE7=Prelude N°8 in Eb minor
TTITLE8=Unwritten postcards
TTITLE9=Nwe morning mambo
TTITLE10=As heard
EXTD=YEAR: 1998
EXTT0=
EXTT1=
EXTT2=
EXTT3=
EXTT4=
EXTT5=
EXTT6=
EXTT7=
EXTT8=
EXTT9=
EXTT10=
PLAYORDER=
